<mxfile host="Electron" agent="Mozilla/5.0 (Windows NT 10.0; Win64; x64) AppleWebKit/537.36 (KHTML, like Gecko) draw.io/26.0.9 Chrome/128.0.6613.186 Electron/32.2.5 Safari/537.36" version="26.0.9">
  <diagram name="Page-1" id="fi1Lg-7dgP-PTi1Xk1YU">
    <mxGraphModel dx="1434" dy="844" grid="1" gridSize="10" guides="1" tooltips="1" connect="1" arrows="1" fold="1" page="0" pageScale="1" pageWidth="1600" pageHeight="900" math="0" shadow="0">
      <root>
        <mxCell id="0" />
        <mxCell id="1" parent="0" />
        <mxCell id="H97chpZ5i8emVwWIBnNh-3" style="edgeStyle=orthogonalEdgeStyle;rounded=0;orthogonalLoop=1;jettySize=auto;html=1;exitX=0.5;exitY=1;exitDx=0;exitDy=0;exitPerimeter=0;entryX=0.5;entryY=0;entryDx=0;entryDy=0;entryPerimeter=0;" parent="1" source="H97chpZ5i8emVwWIBnNh-1" target="H97chpZ5i8emVwWIBnNh-4" edge="1">
          <mxGeometry relative="1" as="geometry">
            <mxPoint x="540" y="230" as="targetPoint" />
          </mxGeometry>
        </mxCell>
        <mxCell id="H97chpZ5i8emVwWIBnNh-1" value="" style="points=[[0.145,0.145,0],[0.5,0,0],[0.855,0.145,0],[1,0.5,0],[0.855,0.855,0],[0.5,1,0],[0.145,0.855,0],[0,0.5,0]];shape=mxgraph.bpmn.event;html=1;verticalLabelPosition=bottom;labelBackgroundColor=#ffffff;verticalAlign=top;align=center;perimeter=ellipsePerimeter;outlineConnect=0;aspect=fixed;outline=standard;symbol=general;" parent="1" vertex="1">
          <mxGeometry x="500" y="100" width="80" height="80" as="geometry" />
        </mxCell>
        <mxCell id="H97chpZ5i8emVwWIBnNh-2" value="&lt;font style=&quot;font-size: 14px;&quot;&gt;Start&lt;/font&gt;" style="text;html=1;align=center;verticalAlign=middle;resizable=0;points=[];autosize=1;strokeColor=none;fillColor=none;" parent="1" vertex="1">
          <mxGeometry x="515" y="70" width="50" height="30" as="geometry" />
        </mxCell>
        <mxCell id="H97chpZ5i8emVwWIBnNh-4" value="Print Welcome Messages + Prizes" style="points=[[0.25,0,0],[0.5,0,0],[0.75,0,0],[1,0.25,0],[1,0.5,0],[1,0.75,0],[0.75,1,0],[0.5,1,0],[0.25,1,0],[0,0.75,0],[0,0.5,0],[0,0.25,0]];shape=mxgraph.bpmn.task2;whiteSpace=wrap;rectStyle=rounded;size=10;html=1;container=1;expand=0;collapsible=0;taskMarker=abstract;" parent="1" vertex="1">
          <mxGeometry x="430" y="230" width="220" height="50" as="geometry" />
        </mxCell>
        <mxCell id="H97chpZ5i8emVwWIBnNh-8" style="edgeStyle=orthogonalEdgeStyle;rounded=0;orthogonalLoop=1;jettySize=auto;html=1;exitX=0;exitY=0.5;exitDx=0;exitDy=0;exitPerimeter=0;" parent="1" source="H97chpZ5i8emVwWIBnNh-5" target="H97chpZ5i8emVwWIBnNh-9" edge="1">
          <mxGeometry relative="1" as="geometry">
            <mxPoint x="380" y="405.3333333333335" as="targetPoint" />
          </mxGeometry>
        </mxCell>
        <mxCell id="H97chpZ5i8emVwWIBnNh-15" style="edgeStyle=orthogonalEdgeStyle;rounded=0;orthogonalLoop=1;jettySize=auto;html=1;exitX=1;exitY=0.5;exitDx=0;exitDy=0;exitPerimeter=0;entryX=0;entryY=0.5;entryDx=0;entryDy=0;entryPerimeter=0;" parent="1" source="H97chpZ5i8emVwWIBnNh-5" target="H97chpZ5i8emVwWIBnNh-17" edge="1">
          <mxGeometry relative="1" as="geometry">
            <mxPoint x="679.9999999999998" y="405.2413793103449" as="targetPoint" />
          </mxGeometry>
        </mxCell>
        <mxCell id="H97chpZ5i8emVwWIBnNh-21" style="edgeStyle=orthogonalEdgeStyle;rounded=0;orthogonalLoop=1;jettySize=auto;html=1;exitX=0.5;exitY=1;exitDx=0;exitDy=0;exitPerimeter=0;entryX=0.5;entryY=0;entryDx=0;entryDy=0;entryPerimeter=0;" parent="1" source="H97chpZ5i8emVwWIBnNh-5" target="H97chpZ5i8emVwWIBnNh-22" edge="1">
          <mxGeometry relative="1" as="geometry">
            <mxPoint x="539.9655172413793" y="500" as="targetPoint" />
          </mxGeometry>
        </mxCell>
        <mxCell id="H97chpZ5i8emVwWIBnNh-5" value="" style="points=[[0.25,0.25,0],[0.5,0,0],[0.75,0.25,0],[1,0.5,0],[0.75,0.75,0],[0.5,1,0],[0.25,0.75,0],[0,0.5,0]];shape=mxgraph.bpmn.gateway2;html=1;verticalLabelPosition=bottom;labelBackgroundColor=#ffffff;verticalAlign=top;align=center;perimeter=rhombusPerimeter;outlineConnect=0;outline=none;symbol=none;gwType=exclusive;" parent="1" vertex="1">
          <mxGeometry x="515" y="380" width="50" height="50" as="geometry" />
        </mxCell>
        <mxCell id="H97chpZ5i8emVwWIBnNh-6" style="edgeStyle=orthogonalEdgeStyle;rounded=0;orthogonalLoop=1;jettySize=auto;html=1;exitX=0.5;exitY=1;exitDx=0;exitDy=0;exitPerimeter=0;entryX=0.5;entryY=0.07;entryDx=0;entryDy=0;entryPerimeter=0;" parent="1" source="H97chpZ5i8emVwWIBnNh-4" target="H97chpZ5i8emVwWIBnNh-7" edge="1">
          <mxGeometry relative="1" as="geometry">
            <mxPoint x="570" y="330" as="targetPoint" />
          </mxGeometry>
        </mxCell>
        <mxCell id="H97chpZ5i8emVwWIBnNh-7" value="&lt;font style=&quot;color: rgb(128, 255, 0);&quot;&gt;User Scan&lt;/font&gt;" style="text;html=1;align=center;verticalAlign=middle;resizable=0;points=[];autosize=1;strokeColor=none;fillColor=none;" parent="1" vertex="1">
          <mxGeometry x="500" y="349" width="80" height="30" as="geometry" />
        </mxCell>
        <mxCell id="H97chpZ5i8emVwWIBnNh-13" style="edgeStyle=orthogonalEdgeStyle;rounded=0;orthogonalLoop=1;jettySize=auto;html=1;exitX=0;exitY=0.5;exitDx=0;exitDy=0;exitPerimeter=0;entryX=1;entryY=0.5;entryDx=0;entryDy=0;" parent="1" source="H97chpZ5i8emVwWIBnNh-9" target="H97chpZ5i8emVwWIBnNh-12" edge="1">
          <mxGeometry relative="1" as="geometry" />
        </mxCell>
        <mxCell id="H97chpZ5i8emVwWIBnNh-9" value="Print goodbye message" style="points=[[0.25,0,0],[0.5,0,0],[0.75,0,0],[1,0.25,0],[1,0.5,0],[1,0.75,0],[0.75,1,0],[0.5,1,0],[0.25,1,0],[0,0.75,0],[0,0.5,0],[0,0.25,0]];shape=mxgraph.bpmn.task2;whiteSpace=wrap;rectStyle=rounded;size=10;html=1;container=1;expand=0;collapsible=0;taskMarker=abstract;" parent="1" vertex="1">
          <mxGeometry x="330" y="379" width="100" height="52" as="geometry" />
        </mxCell>
        <mxCell id="H97chpZ5i8emVwWIBnNh-10" value="Start" style="text;html=1;align=center;verticalAlign=middle;resizable=0;points=[];autosize=1;strokeColor=none;fillColor=none;" parent="1" vertex="1">
          <mxGeometry x="495" y="450" width="50" height="30" as="geometry" />
        </mxCell>
        <mxCell id="H97chpZ5i8emVwWIBnNh-11" value="Exit" style="text;html=1;align=center;verticalAlign=middle;resizable=0;points=[];autosize=1;strokeColor=none;fillColor=none;" parent="1" vertex="1">
          <mxGeometry x="455" y="379" width="40" height="30" as="geometry" />
        </mxCell>
        <mxCell id="H97chpZ5i8emVwWIBnNh-12" value="" style="ellipse;html=1;shape=endState;fillColor=#000000;strokeColor=#ff0000;" parent="1" vertex="1">
          <mxGeometry x="220" y="379" width="50" height="50" as="geometry" />
        </mxCell>
        <mxCell id="H97chpZ5i8emVwWIBnNh-14" value="End" style="text;html=1;align=center;verticalAlign=middle;resizable=0;points=[];autosize=1;strokeColor=none;fillColor=none;" parent="1" vertex="1">
          <mxGeometry x="225" y="350" width="40" height="30" as="geometry" />
        </mxCell>
        <mxCell id="H97chpZ5i8emVwWIBnNh-16" value="different input" style="text;html=1;align=center;verticalAlign=middle;resizable=0;points=[];autosize=1;strokeColor=none;fillColor=none;" parent="1" vertex="1">
          <mxGeometry x="565" y="409" width="100" height="30" as="geometry" />
        </mxCell>
        <mxCell id="H97chpZ5i8emVwWIBnNh-17" value="Print error message&amp;nbsp;" style="points=[[0.25,0,0],[0.5,0,0],[0.75,0,0],[1,0.25,0],[1,0.5,0],[1,0.75,0],[0.75,1,0],[0.5,1,0],[0.25,1,0],[0,0.75,0],[0,0.5,0],[0,0.25,0]];shape=mxgraph.bpmn.task2;whiteSpace=wrap;rectStyle=rounded;size=10;html=1;container=1;expand=0;collapsible=0;taskMarker=abstract;" parent="1" vertex="1">
          <mxGeometry x="680" y="384.5" width="140" height="41" as="geometry" />
        </mxCell>
        <mxCell id="H97chpZ5i8emVwWIBnNh-20" style="edgeStyle=orthogonalEdgeStyle;rounded=0;orthogonalLoop=1;jettySize=auto;html=1;exitX=1;exitY=0.5;exitDx=0;exitDy=0;exitPerimeter=0;entryX=0.508;entryY=-0.022;entryDx=0;entryDy=0;entryPerimeter=0;endArrow=none;startFill=0;" parent="1" source="H97chpZ5i8emVwWIBnNh-17" target="H97chpZ5i8emVwWIBnNh-7" edge="1">
          <mxGeometry relative="1" as="geometry" />
        </mxCell>
        <mxCell id="A_IhcFjj-mvDrSFzsU9k-1" style="edgeStyle=orthogonalEdgeStyle;rounded=0;orthogonalLoop=1;jettySize=auto;html=1;exitX=0.5;exitY=1;exitDx=0;exitDy=0;exitPerimeter=0;" edge="1" parent="1" source="H97chpZ5i8emVwWIBnNh-22">
          <mxGeometry relative="1" as="geometry">
            <mxPoint x="539.9655172413793" y="600" as="targetPoint" />
          </mxGeometry>
        </mxCell>
        <mxCell id="H97chpZ5i8emVwWIBnNh-22" value="Print credit options" style="points=[[0.25,0,0],[0.5,0,0],[0.75,0,0],[1,0.25,0],[1,0.5,0],[1,0.75,0],[0.75,1,0],[0.5,1,0],[0.25,1,0],[0,0.75,0],[0,0.5,0],[0,0.25,0]];shape=mxgraph.bpmn.task2;whiteSpace=wrap;rectStyle=rounded;size=10;html=1;container=1;expand=0;collapsible=0;taskMarker=abstract;" parent="1" vertex="1">
          <mxGeometry x="480" y="510" width="120" height="50" as="geometry" />
        </mxCell>
        <mxCell id="H97chpZ5i8emVwWIBnNh-24" value="method spin" style="swimlane;startSize=20;whiteSpace=wrap;html=1;" parent="1" vertex="1">
          <mxGeometry x="920" y="640" width="290" height="390" as="geometry" />
        </mxCell>
        <mxCell id="A_IhcFjj-mvDrSFzsU9k-26" style="edgeStyle=orthogonalEdgeStyle;rounded=0;orthogonalLoop=1;jettySize=auto;html=1;exitX=0.5;exitY=1;exitDx=0;exitDy=0;exitPerimeter=0;entryX=0.5;entryY=0;entryDx=0;entryDy=0;entryPerimeter=0;" edge="1" parent="H97chpZ5i8emVwWIBnNh-24" source="A_IhcFjj-mvDrSFzsU9k-25" target="A_IhcFjj-mvDrSFzsU9k-27">
          <mxGeometry relative="1" as="geometry">
            <mxPoint x="145.1379310344828" y="177.5" as="targetPoint" />
          </mxGeometry>
        </mxCell>
        <mxCell id="A_IhcFjj-mvDrSFzsU9k-25" value="Generate 3 random numbers" style="points=[[0.25,0,0],[0.5,0,0],[0.75,0,0],[1,0.25,0],[1,0.5,0],[1,0.75,0],[0.75,1,0],[0.5,1,0],[0.25,1,0],[0,0.75,0],[0,0.5,0],[0,0.25,0]];shape=mxgraph.bpmn.task2;whiteSpace=wrap;rectStyle=rounded;size=10;html=1;container=1;expand=0;collapsible=0;taskMarker=abstract;isLoopStandard=1;" vertex="1" parent="H97chpZ5i8emVwWIBnNh-24">
          <mxGeometry x="60" y="47.5" width="170" height="72.5" as="geometry" />
        </mxCell>
        <mxCell id="A_IhcFjj-mvDrSFzsU9k-28" style="edgeStyle=orthogonalEdgeStyle;rounded=0;orthogonalLoop=1;jettySize=auto;html=1;exitX=0.5;exitY=1;exitDx=0;exitDy=0;exitPerimeter=0;entryX=0.5;entryY=0;entryDx=0;entryDy=0;entryPerimeter=0;" edge="1" parent="H97chpZ5i8emVwWIBnNh-24" source="A_IhcFjj-mvDrSFzsU9k-27" target="A_IhcFjj-mvDrSFzsU9k-29">
          <mxGeometry relative="1" as="geometry">
            <mxPoint x="145.1379310344828" y="277.5" as="targetPoint" />
          </mxGeometry>
        </mxCell>
        <mxCell id="A_IhcFjj-mvDrSFzsU9k-27" value="Check if win or not" style="points=[[0.25,0,0],[0.5,0,0],[0.75,0,0],[1,0.25,0],[1,0.5,0],[1,0.75,0],[0.75,1,0],[0.5,1,0],[0.25,1,0],[0,0.75,0],[0,0.5,0],[0,0.25,0]];shape=mxgraph.bpmn.task2;whiteSpace=wrap;rectStyle=rounded;size=10;html=1;container=1;expand=0;collapsible=0;taskMarker=abstract;" vertex="1" parent="H97chpZ5i8emVwWIBnNh-24">
          <mxGeometry x="67.5" y="177.5" width="155" height="52.5" as="geometry" />
        </mxCell>
        <mxCell id="A_IhcFjj-mvDrSFzsU9k-29" value="Print Message" style="points=[[0.25,0,0],[0.5,0,0],[0.75,0,0],[1,0.25,0],[1,0.5,0],[1,0.75,0],[0.75,1,0],[0.5,1,0],[0.25,1,0],[0,0.75,0],[0,0.5,0],[0,0.25,0]];shape=mxgraph.bpmn.task2;whiteSpace=wrap;rectStyle=rounded;size=10;html=1;container=1;expand=0;collapsible=0;taskMarker=abstract;" vertex="1" parent="H97chpZ5i8emVwWIBnNh-24">
          <mxGeometry x="68.75" y="280" width="152.5" height="62.5" as="geometry" />
        </mxCell>
        <mxCell id="A_IhcFjj-mvDrSFzsU9k-2" value="&lt;font style=&quot;color: rgb(128, 255, 0);&quot;&gt;User Scan&lt;/font&gt;" style="text;html=1;align=center;verticalAlign=middle;resizable=0;points=[];autosize=1;strokeColor=none;fillColor=none;" vertex="1" parent="1">
          <mxGeometry x="500" y="600" width="80" height="30" as="geometry" />
        </mxCell>
        <mxCell id="A_IhcFjj-mvDrSFzsU9k-11" style="edgeStyle=orthogonalEdgeStyle;rounded=0;orthogonalLoop=1;jettySize=auto;html=1;exitX=0.5;exitY=1;exitDx=0;exitDy=0;exitPerimeter=0;" edge="1" parent="1" source="A_IhcFjj-mvDrSFzsU9k-3">
          <mxGeometry relative="1" as="geometry">
            <mxPoint x="767" y="720" as="targetPoint" />
          </mxGeometry>
        </mxCell>
        <mxCell id="A_IhcFjj-mvDrSFzsU9k-3" value="Print amount of spins" style="points=[[0.25,0,0],[0.5,0,0],[0.75,0,0],[1,0.25,0],[1,0.5,0],[1,0.75,0],[0.75,1,0],[0.5,1,0],[0.25,1,0],[0,0.75,0],[0,0.5,0],[0,0.25,0]];shape=mxgraph.bpmn.task2;whiteSpace=wrap;rectStyle=rounded;size=10;html=1;container=1;expand=0;collapsible=0;taskMarker=abstract;" vertex="1" parent="1">
          <mxGeometry x="700" y="630" width="135" height="50" as="geometry" />
        </mxCell>
        <mxCell id="A_IhcFjj-mvDrSFzsU9k-5" style="edgeStyle=orthogonalEdgeStyle;rounded=0;orthogonalLoop=1;jettySize=auto;html=1;exitX=0;exitY=0.5;exitDx=0;exitDy=0;exitPerimeter=0;entryX=1;entryY=0.5;entryDx=0;entryDy=0;entryPerimeter=0;" edge="1" parent="1" source="A_IhcFjj-mvDrSFzsU9k-4" target="A_IhcFjj-mvDrSFzsU9k-6">
          <mxGeometry relative="1" as="geometry">
            <mxPoint x="449.9999999999998" y="655.2413793103449" as="targetPoint" />
          </mxGeometry>
        </mxCell>
        <mxCell id="A_IhcFjj-mvDrSFzsU9k-4" value="" style="points=[[0.25,0.25,0],[0.5,0,0],[0.75,0.25,0],[1,0.5,0],[0.75,0.75,0],[0.5,1,0],[0.25,0.75,0],[0,0.5,0]];shape=mxgraph.bpmn.gateway2;html=1;verticalLabelPosition=bottom;labelBackgroundColor=#ffffff;verticalAlign=top;align=center;perimeter=rhombusPerimeter;outlineConnect=0;outline=none;symbol=none;gwType=exclusive;" vertex="1" parent="1">
          <mxGeometry x="515" y="630" width="50" height="50" as="geometry" />
        </mxCell>
        <mxCell id="A_IhcFjj-mvDrSFzsU9k-6" value="Print error message&amp;nbsp;" style="points=[[0.25,0,0],[0.5,0,0],[0.75,0,0],[1,0.25,0],[1,0.5,0],[1,0.75,0],[0.75,1,0],[0.5,1,0],[0.25,1,0],[0,0.75,0],[0,0.5,0],[0,0.25,0]];shape=mxgraph.bpmn.task2;whiteSpace=wrap;rectStyle=rounded;size=10;html=1;container=1;expand=0;collapsible=0;taskMarker=abstract;" vertex="1" parent="1">
          <mxGeometry x="300" y="632.5" width="130" height="45" as="geometry" />
        </mxCell>
        <mxCell id="A_IhcFjj-mvDrSFzsU9k-7" value="&lt;span style=&quot;text-wrap: wrap;&quot;&gt;Invalid Input&lt;/span&gt;" style="text;html=1;align=center;verticalAlign=middle;resizable=0;points=[];autosize=1;strokeColor=none;fillColor=none;" vertex="1" parent="1">
          <mxGeometry x="425" y="620" width="90" height="30" as="geometry" />
        </mxCell>
        <mxCell id="A_IhcFjj-mvDrSFzsU9k-8" style="edgeStyle=orthogonalEdgeStyle;rounded=0;orthogonalLoop=1;jettySize=auto;html=1;exitX=0;exitY=0.5;exitDx=0;exitDy=0;exitPerimeter=0;entryX=0.5;entryY=-0.021;entryDx=0;entryDy=0;entryPerimeter=0;" edge="1" parent="1" source="A_IhcFjj-mvDrSFzsU9k-6" target="A_IhcFjj-mvDrSFzsU9k-2">
          <mxGeometry relative="1" as="geometry" />
        </mxCell>
        <mxCell id="A_IhcFjj-mvDrSFzsU9k-9" style="edgeStyle=orthogonalEdgeStyle;rounded=0;orthogonalLoop=1;jettySize=auto;html=1;exitX=1;exitY=0.5;exitDx=0;exitDy=0;exitPerimeter=0;entryX=0;entryY=0.5;entryDx=0;entryDy=0;entryPerimeter=0;" edge="1" parent="1" source="A_IhcFjj-mvDrSFzsU9k-4" target="A_IhcFjj-mvDrSFzsU9k-3">
          <mxGeometry relative="1" as="geometry" />
        </mxCell>
        <mxCell id="A_IhcFjj-mvDrSFzsU9k-10" value="Valid Input" style="text;html=1;align=center;verticalAlign=middle;resizable=0;points=[];autosize=1;strokeColor=none;fillColor=none;" vertex="1" parent="1">
          <mxGeometry x="580" y="620" width="80" height="30" as="geometry" />
        </mxCell>
        <mxCell id="A_IhcFjj-mvDrSFzsU9k-13" value="spins &amp;gt; 0" style="text;html=1;align=center;verticalAlign=middle;resizable=0;points=[];autosize=1;strokeColor=none;fillColor=none;" vertex="1" parent="1">
          <mxGeometry x="800" y="750" width="70" height="30" as="geometry" />
        </mxCell>
        <mxCell id="A_IhcFjj-mvDrSFzsU9k-17" style="edgeStyle=orthogonalEdgeStyle;rounded=0;orthogonalLoop=1;jettySize=auto;html=1;exitX=1;exitY=0.5;exitDx=0;exitDy=0;exitPerimeter=0;entryX=0;entryY=0.5;entryDx=0;entryDy=0;entryPerimeter=0;endArrow=oval;endFill=1;endSize=11;" edge="1" parent="1" source="A_IhcFjj-mvDrSFzsU9k-15" target="A_IhcFjj-mvDrSFzsU9k-25">
          <mxGeometry relative="1" as="geometry">
            <mxPoint x="879.9999999999998" y="775.2413793103449" as="targetPoint" />
            <Array as="points">
              <mxPoint x="890" y="775" />
              <mxPoint x="890" y="724" />
            </Array>
          </mxGeometry>
        </mxCell>
        <mxCell id="A_IhcFjj-mvDrSFzsU9k-15" value="" style="points=[[0.25,0.25,0],[0.5,0,0],[0.75,0.25,0],[1,0.5,0],[0.75,0.75,0],[0.5,1,0],[0.25,0.75,0],[0,0.5,0]];shape=mxgraph.bpmn.gateway2;html=1;verticalLabelPosition=bottom;labelBackgroundColor=#ffffff;verticalAlign=top;align=center;perimeter=rhombusPerimeter;outlineConnect=0;outline=none;symbol=none;gwType=exclusive;" vertex="1" parent="1">
          <mxGeometry x="742.5" y="750" width="50" height="50" as="geometry" />
        </mxCell>
        <mxCell id="A_IhcFjj-mvDrSFzsU9k-16" value="spin = 0" style="text;html=1;align=center;verticalAlign=middle;resizable=0;points=[];autosize=1;strokeColor=none;fillColor=none;" vertex="1" parent="1">
          <mxGeometry x="640" y="750" width="70" height="30" as="geometry" />
        </mxCell>
        <mxCell id="A_IhcFjj-mvDrSFzsU9k-32" style="edgeStyle=orthogonalEdgeStyle;rounded=0;orthogonalLoop=1;jettySize=auto;html=1;exitX=0.5;exitY=1;exitDx=0;exitDy=0;exitPerimeter=0;entryX=0.5;entryY=0;entryDx=0;entryDy=0;" edge="1" parent="1" source="A_IhcFjj-mvDrSFzsU9k-18" target="A_IhcFjj-mvDrSFzsU9k-20">
          <mxGeometry relative="1" as="geometry" />
        </mxCell>
        <mxCell id="A_IhcFjj-mvDrSFzsU9k-18" value="Print out of spins Message" style="points=[[0.25,0,0],[0.5,0,0],[0.75,0,0],[1,0.25,0],[1,0.5,0],[1,0.75,0],[0.75,1,0],[0.5,1,0],[0.25,1,0],[0,0.75,0],[0,0.5,0],[0,0.25,0]];shape=mxgraph.bpmn.task2;whiteSpace=wrap;rectStyle=rounded;size=10;html=1;container=1;expand=0;collapsible=0;taskMarker=abstract;" vertex="1" parent="1">
          <mxGeometry x="530" y="830" width="130" height="40" as="geometry" />
        </mxCell>
        <mxCell id="A_IhcFjj-mvDrSFzsU9k-20" value="" style="ellipse;html=1;shape=endState;fillColor=#000000;strokeColor=#ff0000;" vertex="1" parent="1">
          <mxGeometry x="564.37" y="950" width="61.25" height="60" as="geometry" />
        </mxCell>
        <mxCell id="A_IhcFjj-mvDrSFzsU9k-21" value="&lt;font style=&quot;font-size: 14px;&quot;&gt;End&lt;/font&gt;" style="text;html=1;align=center;verticalAlign=middle;resizable=0;points=[];autosize=1;strokeColor=none;fillColor=none;" vertex="1" parent="1">
          <mxGeometry x="569.99" y="1010" width="50" height="30" as="geometry" />
        </mxCell>
        <mxCell id="A_IhcFjj-mvDrSFzsU9k-30" style="edgeStyle=orthogonalEdgeStyle;rounded=0;orthogonalLoop=1;jettySize=auto;html=1;exitX=0;exitY=0.5;exitDx=0;exitDy=0;exitPerimeter=0;entryX=0.5;entryY=1;entryDx=0;entryDy=0;entryPerimeter=0;startArrow=oval;startFill=1;endSize=8;startSize=11;" edge="1" parent="1" source="A_IhcFjj-mvDrSFzsU9k-29" target="A_IhcFjj-mvDrSFzsU9k-15">
          <mxGeometry relative="1" as="geometry">
            <Array as="points">
              <mxPoint x="890" y="951" />
              <mxPoint x="890" y="950" />
              <mxPoint x="767" y="950" />
            </Array>
          </mxGeometry>
        </mxCell>
        <mxCell id="A_IhcFjj-mvDrSFzsU9k-31" style="edgeStyle=orthogonalEdgeStyle;rounded=0;orthogonalLoop=1;jettySize=auto;html=1;exitX=0;exitY=0.5;exitDx=0;exitDy=0;exitPerimeter=0;entryX=0.5;entryY=0;entryDx=0;entryDy=0;entryPerimeter=0;" edge="1" parent="1" source="A_IhcFjj-mvDrSFzsU9k-15" target="A_IhcFjj-mvDrSFzsU9k-18">
          <mxGeometry relative="1" as="geometry" />
        </mxCell>
        <mxCell id="A_IhcFjj-mvDrSFzsU9k-33" value="&lt;font style=&quot;color: rgb(128, 255, 0);&quot;&gt;Amount of Spins?&lt;/font&gt;" style="text;html=1;align=center;verticalAlign=middle;resizable=0;points=[];autosize=1;strokeColor=none;fillColor=none;" vertex="1" parent="1">
          <mxGeometry x="707.5" y="720" width="120" height="30" as="geometry" />
        </mxCell>
      </root>
    </mxGraphModel>
  </diagram>
</mxfile>
